<?xml version="1.0" encoding="UTF-8"?> <svg xmlns="http://www.w3.org/2000/svg" width="196" height="37" viewBox="0 0 196 37" fill="none"><path d="M2.4024 0.570576C2.55255 0.900906 4.53453 4.2943 6.75676 8.10811C8.97898 11.9219 10.8108 15.1351 10.8108 15.2252C10.8108 15.3153 8.37838 18.4084 5.40541 22.1021C2.43243 25.7958 0 28.8889 0 28.979C0 29.3093 10.3604 29.0991 10.991 28.7387C11.7417 28.3183 21.9219 15.6757 21.9219 15.1952C21.9219 15.015 20.7808 13.2733 19.3694 11.3213L16.8468 7.80781L19.3093 7.77778C20.6607 7.74775 25.0751 7.62763 29.1291 7.53754L36.4865 7.35736L39.2493 3.90391C40.7808 2.01202 42.042 0.360366 42.042 0.210215C42.042 0.0900953 33.0631 5.15954e-06 22.0721 5.15954e-06C2.34234 5.15954e-06 2.07207 5.15954e-06 2.4024 0.570576Z" fill="black" style="fill:black;fill-opacity:1;"></path><path d="M147.207 5.31527C146.847 5.37533 146.186 5.79575 145.766 6.2462C145.075 6.96692 138.438 20.6606 138.438 21.3513C138.438 21.5315 139.459 21.6216 140.751 21.5615L143.093 21.4714L143.754 20.1201C144.114 19.3693 145.045 17.2372 145.826 15.3753C146.637 13.5435 147.357 12.012 147.447 12.012C147.538 12.012 148.258 13.9339 149.069 16.2762C150.661 20.9009 151.351 21.9219 152.823 21.9219C154.535 21.9219 155.285 21.2612 158.318 16.9669C159.97 14.6546 161.411 12.5825 161.471 12.3723C161.862 11.4114 162.072 12.3723 162.432 16.5765C162.643 19.0991 162.883 21.2612 162.973 21.3813C163.123 21.6516 167.868 21.7117 167.868 21.4414C167.868 20.1801 166.246 7.1471 166.006 6.5465C165.826 6.00596 165.345 5.61557 164.685 5.40536C162.823 4.77473 161.862 5.55551 157.898 10.9609C154.565 15.4954 153.754 16.4264 153.754 15.6156C153.754 14.9249 150.36 6.42638 149.88 5.9459C149.339 5.37533 148.228 5.10506 147.207 5.31527Z" fill="black" style="fill:black;fill-opacity:1;"></path><path d="M184.234 5.40537C183.754 5.55552 182.643 6.39636 181.772 7.26723C179.459 9.66963 169.369 21.1411 169.369 21.3813C169.369 21.5315 170.631 21.6216 172.162 21.6216L174.925 21.5916L179.55 16.3363C182.102 13.4534 184.294 11.2012 184.414 11.3213C184.685 11.6516 187.387 16.9669 187.387 17.2072C187.387 17.3273 185.916 17.4174 184.114 17.4174H180.841L179.159 19.2792C178.228 20.3003 177.477 21.2312 177.477 21.3813C177.477 21.5015 181.532 21.6216 186.486 21.6216C192.673 21.6216 195.495 21.5315 195.495 21.2913C195.495 20.7207 188.228 6.75672 187.568 6.09606C186.817 5.34531 185.465 5.04501 184.234 5.40537Z" fill="black" style="fill:black;fill-opacity:1;"></path><path d="M64.8649 5.82584C61.3814 6.57659 58.8889 8.3784 57.4775 11.2012C56.3363 13.4234 56.3363 16.4865 57.4474 18.4084C58.9189 20.9309 62.6727 22.1321 68.018 21.8318C73.1231 21.5315 76.1562 20.2403 77.2072 17.8679C78.2883 15.5255 77.6877 13.5436 75.5856 12.5826C74.4745 12.1021 73.5736 12.012 68.4084 12.012C65.1351 12.012 62.4625 11.8919 62.4625 11.7718C62.4625 11.2913 63.6036 10.4505 64.7748 10.03C65.5255 9.78981 67.3574 9.63966 70.1201 9.60963H74.2943L76.036 7.89792C76.997 6.93695 77.7778 6.00602 77.7778 5.79581C77.7778 5.2853 67.2372 5.2853 64.8649 5.82584ZM72.1922 15.3153C73.1231 15.6757 73.1832 16.2463 72.3423 16.997C71.8018 17.5075 71.2312 17.5676 67.8979 17.5676C63.7538 17.5676 62.4625 17.2373 61.9219 16.0661C61.7417 15.6757 61.6817 15.2853 61.7718 15.1952C62.0721 14.8949 71.3814 14.985 72.1922 15.3153Z" fill="black" style="fill:black;fill-opacity:1;"></path><path d="M89.6997 5.82584C86.7568 6.45647 85.2553 7.98801 85.0451 10.6306C84.8949 12.4925 85.3153 13.4234 86.6967 14.3243C87.3874 14.7748 88.4685 14.8949 93.7538 15.015C98.8889 15.1352 100.06 15.2553 100.3 15.6156C100.691 16.2463 100.661 16.3964 100.12 16.937C99.7297 17.3574 98.6487 17.4174 93.033 17.4174H86.3964L84.6547 19.2793C83.6937 20.3303 82.8829 21.2913 82.8829 21.4114C82.8829 21.5616 86.9069 21.6216 91.8318 21.5616C101.171 21.4715 101.321 21.4415 103.423 20C105.255 18.7688 106.006 15.2553 104.745 13.6637C103.604 12.1922 102.643 12.012 96.5466 12.012C90.7508 12.012 89.7898 11.8318 89.7898 10.8108C89.7898 9.75978 90.7508 9.60963 96.9069 9.60963H102.883L104.745 7.71774C105.766 6.69671 106.607 5.73575 106.607 5.61563C106.607 5.25527 91.5916 5.43545 89.6997 5.82584Z" fill="black" style="fill:black;fill-opacity:1;"></path><path d="M110.09 5.64562C109.97 5.85583 107.207 20.9309 107.207 21.4114C107.207 21.8018 112.012 21.6516 112.162 21.2312C112.462 20.3904 114.955 5.8258 114.805 5.61559C114.625 5.34532 110.3 5.34532 110.09 5.64562Z" fill="black" style="fill:black;fill-opacity:1;"></path><path d="M124.715 5.85582C118.889 7.11708 115.435 11.8318 116.877 16.5465C117.357 18.2282 118.949 19.9099 120.781 20.7507C122.282 21.4414 122.763 21.4714 129.159 21.5615L135.976 21.6516L136.637 17.9579C136.997 15.9159 137.417 13.6937 137.538 13.003C137.658 12.3123 137.688 11.6516 137.598 11.5615C137.508 11.4714 135.225 11.4114 132.493 11.4114H127.568L125.736 13.2132L123.874 15.015H127.838C130.21 15.015 131.862 15.1351 131.982 15.3153C132.102 15.4955 132.072 16.036 131.982 16.5465L131.772 17.4474L127.568 17.3573L123.363 17.2672L122.493 16.2762C120.841 14.4444 121.622 11.7117 124.174 10.3903C125.225 9.84981 126.006 9.75972 130.33 9.66963L135.285 9.57954L137.177 7.71768C138.198 6.69666 139.039 5.76573 139.039 5.6456C139.039 5.22518 126.757 5.40536 124.715 5.85582Z" fill="black" style="fill:black;fill-opacity:1;"></path><path d="M35.976 8.31834C33.9039 10.5706 30.6907 14.985 31.021 15.1051C31.6216 15.3454 37.6877 15.3754 39.6396 15.1352L41.4715 14.9249L44.4745 11.2313L47.4775 7.50753H42.1021H36.7567L35.976 8.31834Z" fill="black" style="fill:black;fill-opacity:1;"></path><path d="M58.4985 26.006C57.958 26.2763 57.5375 26.8769 57.2973 27.6577C56.967 28.8289 56.997 28.949 57.6276 29.4595C58.1982 29.9099 58.8288 30.0301 60.8108 30.0301C64.2643 30.0301 65.1652 30.2403 65.1652 31.0511C65.1652 32.2523 64.6246 32.4325 61.1712 32.4325C58.1682 32.4325 57.8979 32.3724 57.7477 31.8319C57.5075 30.931 56.4565 31.0511 56.4565 31.952C56.4565 33.4235 57.0871 33.6337 61.1111 33.6337C64.1742 33.6337 64.8949 33.5436 65.4354 33.0931C66.6967 32.0721 66.7868 29.7898 65.5556 29.2793C65.2552 29.1592 63.5736 29.009 61.8018 28.919L58.5586 28.7388V27.8979C58.5586 26.8169 59.039 26.6667 62.7628 26.7868C65.4054 26.8769 65.6456 26.937 65.9159 27.5376C66.2462 28.2883 66.3363 28.3484 66.9369 27.958C67.5676 27.5376 67.0871 26.1562 66.1862 25.8259C64.9549 25.3454 59.4595 25.4655 58.4985 26.006Z" fill="black" style="fill:black;fill-opacity:1;"></path><path d="M70.1502 26.0361C70.0601 26.3364 69.7297 27.8679 69.3694 29.4295C69.039 30.991 68.7087 32.5826 68.6186 32.943C68.4985 33.4835 68.5886 33.6337 69.0691 33.6337C69.4294 33.6337 69.7297 33.3934 69.8198 32.943C70.7508 29.0691 71.3514 25.946 71.2613 25.7358C71.021 25.3153 70.3003 25.5256 70.1502 26.0361Z" fill="black" style="fill:black;fill-opacity:1;"></path><path d="M74.0541 25.886C73.964 26.0962 73.6336 27.6878 73.2733 29.4295C72.9129 31.1713 72.5526 32.8229 72.4925 33.0932C72.3724 33.4836 72.4925 33.6337 72.9429 33.6337C73.6036 33.6337 73.6336 33.5737 74.3243 30.1803C74.985 27.0571 75.1051 26.6367 75.3153 26.8469C75.4054 26.937 76.036 28.4686 76.7267 30.2403C77.4775 32.1322 78.1982 33.5136 78.4384 33.5737C78.7087 33.6337 80.03 32.2523 81.7117 30.2103C83.2733 28.2884 84.6246 26.7268 84.7147 26.7268C84.8348 26.7268 84.5946 28.2583 84.2042 30.0902C83.8138 31.952 83.4835 33.5136 83.4835 33.5436C83.4835 33.6037 83.7538 33.6337 84.0841 33.6337C84.7447 33.6337 84.6847 33.7538 85.5856 29.3094C86.3664 25.4656 86.3664 25.5256 85.1952 25.5256C84.2943 25.5256 83.964 25.8259 81.6517 28.6487C80.2703 30.3905 79.039 31.8019 78.949 31.8019C78.8589 31.8319 78.2282 30.4505 77.5676 28.7388L76.3964 25.6758L75.2853 25.5857C74.5646 25.5256 74.1141 25.6157 74.0541 25.886Z" fill="black" style="fill:black;fill-opacity:1;"></path><path d="M93.2432 25.8859C93.1832 26.0961 92.7928 27.928 92.4024 29.97L91.6817 33.6637L92.3123 33.5736C92.8228 33.5135 93.003 33.1532 93.2432 31.8319L93.5435 30.1802H96.8468H100.15L100.09 31.8919C100.03 33.4235 100.09 33.6337 100.601 33.6337C101.021 33.6337 101.231 33.2733 101.532 32.012C101.772 30.931 101.772 30.2403 101.562 29.8799C101.351 29.4895 101.411 29.0391 101.712 28.3184C102.222 27.0571 101.982 26.1862 100.991 25.7958C99.8498 25.3754 93.3934 25.4355 93.2432 25.8859ZM100.541 27.4175C100.751 28.5586 100.09 28.8289 96.967 28.8289C94.2342 28.8289 93.994 28.7688 93.994 28.2583C93.994 26.7868 94.1742 26.6967 97.4174 26.7868C100.06 26.8769 100.45 26.937 100.541 27.4175Z" fill="black" style="fill:black;fill-opacity:1;"></path><path d="M105.856 29.1592C102.402 33.8739 102.523 33.6336 103.363 33.6336C103.844 33.6336 104.264 33.3333 104.595 32.7327C105.135 31.8318 105.135 31.8318 107.988 31.8318H110.871L111.201 32.7327C111.441 33.3934 111.742 33.6336 112.252 33.6336C113.063 33.6336 113.123 33.994 111.321 29.1291C110.21 26.0661 109.97 25.6757 109.309 25.5856C108.649 25.4955 108.168 26.006 105.856 29.1592ZM109.85 28.8288L110.48 30.6306H108.378C106.727 30.6306 106.336 30.5406 106.517 30.2403C107.177 29.1291 108.829 27.027 109.039 27.027C109.159 27.027 109.52 27.8379 109.85 28.8288Z" fill="black" style="fill:black;fill-opacity:1;"></path><path d="M117.267 25.7958C115.886 26.3664 115.165 27.7778 114.835 30.5706C114.655 32.1622 114.715 32.4325 115.285 33.003C115.856 33.5736 116.246 33.6337 119.399 33.6337C122.823 33.6337 122.883 33.6337 123.754 32.7628C124.234 32.2823 124.625 31.7418 124.625 31.5616C124.625 30.991 123.574 31.2012 123.183 31.8319C122.853 32.3724 122.492 32.4325 119.7 32.4325C115.856 32.4325 115.706 32.3123 116.186 29.6997C116.667 26.8769 116.907 26.7268 120.631 26.7268C123.514 26.7268 123.784 26.7868 123.934 27.3274C124.174 28.2283 125.225 28.1081 125.225 27.2072C125.225 25.8859 124.234 25.5256 120.871 25.5556C119.219 25.5556 117.598 25.6757 117.267 25.7958Z" fill="black" style="fill:black;fill-opacity:1;"></path><path d="M127.958 27.0871C127.778 27.9579 127.508 29.5495 127.327 30.6306C127.147 31.7117 126.937 32.8228 126.877 33.1231C126.787 33.5435 126.937 33.6336 127.417 33.5735C127.988 33.4835 128.108 33.063 128.709 29.7297C129.069 27.6576 129.309 25.8859 129.219 25.7357C128.799 25.075 128.228 25.6756 127.958 27.0871Z" fill="black" style="fill:black;fill-opacity:1;"></path><path d="M131.982 26.1862C131.922 26.5766 131.622 28.1682 131.381 29.7298C131.111 31.2913 130.841 32.8229 130.751 33.1232C130.601 33.5736 130.721 33.6637 131.261 33.5736C131.832 33.5135 132.012 33.2433 132.162 32.2823C132.282 31.6217 132.523 30.0901 132.733 28.8889C132.913 27.7178 133.183 26.7268 133.303 26.7268C133.423 26.7268 134.625 28.2883 136.036 30.1802C138.138 33.0631 138.679 33.6337 139.339 33.6337C140.12 33.6337 140.12 33.5736 140.661 30.2403C140.931 28.4084 141.261 26.5766 141.351 26.1862C141.471 25.6757 141.381 25.5256 140.901 25.5256C140.24 25.5256 140.15 25.7658 139.61 29.3694C139.399 30.7208 139.099 31.8018 138.979 31.7718C138.829 31.7117 137.718 30.3304 136.517 28.6787C134.504 25.9159 134.264 25.6757 133.243 25.5856C132.312 25.4955 132.132 25.5856 131.982 26.1862Z" fill="black" style="fill:black;fill-opacity:1;"></path><path d="M144.685 26.006C143.514 26.6367 142.913 27.988 142.733 30.4805C142.492 33.4235 142.793 33.6337 147.237 33.6337C149.039 33.6337 150.751 33.4835 151.111 33.3033C151.742 32.973 152.553 31.3214 152.553 30.3304C152.553 29.7898 152.372 29.7298 150.03 29.7298C148.138 29.7298 147.477 29.8499 147.357 30.1502C147.087 30.8108 147.417 30.931 149.309 30.931C150.601 30.931 151.051 31.0511 151.051 31.3514C151.051 32.2523 150.24 32.4625 147.117 32.3724L143.994 32.2823L143.904 31.3814C143.724 29.97 144.414 27.3574 145.045 27.0271C145.345 26.8469 146.877 26.7268 148.438 26.7268C151.021 26.7268 151.321 26.7868 151.712 27.3874C151.982 27.8078 152.312 27.958 152.643 27.8379C153.333 27.5676 153.273 27.1172 152.402 26.2763C151.742 25.5856 151.471 25.5256 148.589 25.5256C146.426 25.5556 145.255 25.6757 144.685 26.006Z" fill="black" style="fill:black;fill-opacity:1;"></path><path d="M11.5015 29.2192C10.8408 29.4595 9.66967 30.6907 7.68769 33.1832L4.80481 36.7868L19.3093 36.8769C29.8799 36.9369 34.024 36.8468 34.6547 36.6066C35.5255 36.2162 41.2012 29.4595 40.961 29.0691C40.6907 28.6487 12.5826 28.8288 11.5015 29.2192Z" fill="black" style="fill:black;fill-opacity:1;"></path></svg> 