<?xml version="1.0" encoding="UTF-8"?> <svg xmlns="http://www.w3.org/2000/svg" id="Layer_2" data-name="Layer 2" viewBox="0 0 1414 262.2"><g id="Layer_1-2" data-name="Layer 1"><g id="fxoHE0.tif"><g><polygon points="1414 137.48 1377.53 183.3 1205.15 183.3 1205.15 3.98 1413 3.98 1377.53 50.81 1261.11 50.81 1261.11 71.73 1403.01 71.73 1371.53 112.57 1262.61 112.57 1261.11 114.06 1261.11 136.48 1414 136.48 1414 137.48"></polygon><path d="M858.39,262l-12.5-20.92-4.97,18.95-11.51.96c3.85-6.92,7.82-48.18,21.42-31.81,3.92,4.72,7.86,14.12,10.57,19.86l12.91-21.47c2.41-2.71,8.1-2.64,10.13.25,4.36,6.2,5.83,25.55,9.92,33.18l-11.95-.03c-1.2-5.72-2.36-11.84-4.01-17.43-.43-1.44.57-1.74-2.01-1.45l-11.01,19.92h-7Z"></path><path d="M565.6,262l-12.5-20.92-4.97,18.95-11.51.97c3.7-7.58,5.68-27.16,9.92-33.18,2.03-2.88,7.72-2.96,10.13-.25l12.91,21.47c2.53-6.48,14.95-34.51,22.77-19.2,4.18,8.19,4.84,22.45,9.22,31.15l-11.89-.09-5.59-19.84-11.49,20.93h-7Z"></path><path d="M1414,254.03c-1.71,2.11-5.68,6.97-8.49,6.97h-39.47l7.49-8.97h27.98c1.01,0,2.1-3.26,1.5-3.97-1.68-1.98-22.98-.39-27.42-1.07-13.4-2.04-9.31-20.86,1.93-20.86h35.47l-7.49,9.96h-25.98l-1.49,2.48,1.49,1.51h25.98c2.32,0,7.24,3.77,8.49,5.98v7.97Z"></path><path d="M302.79,262l-21.98-19.92v18.93h-10.99v-30.38c0-2.04,4.2-5.04,6.5-5.03,5.32.02,20.13,17.06,25.48,20.47v-19.92h10c-.74,9.75.98,20.81,0,30.4-.26,2.53-.66,4.16-3,5.46h-6Z"></path><path d="M1261.11,262l-22.98-19.92v18.93h-10.99v-29.39c0-3.09,4.64-7.01,8.03-6.06,5.74,1.6,17.92,16.99,23.94,20.51v-19.92h10c-.74,9.75.98,20.81,0,30.4-.26,2.53-.66,4.16-3,5.46h-5Z"></path><path d="M403.71,262c-5.67-.72-15.99-5.85-15.99-12.45v-23.41h10.99v21.42c0,6.85,23.98,6.56,23.98,1v-22.41h10.99v25.4c0,4.97-9.92,9.38-13.99,10.46-5.08-.45-11.06.62-15.99,0Z"></path><polygon points="791.44 3.98 756.47 50.81 639.55 50.81 639.55 71.73 781.45 71.73 749.97 112.57 639.55 112.57 639.55 136.48 791.44 136.48 755.97 183.3 583.59 183.3 583.59 3.98 791.44 3.98"></polygon><path d="M299.79,183.3H90.94l33.64-46.66,75.28.83-48.47-71.72-2.34,1.64-82.59,115.91H1L121.92,13.45c18.83-18.34,48.39-16.27,63.93,4.99l113.94,164.85Z"></path><path d="M373.74,137.48v45.83h-54.96v-91.65h157.39c1.99,0,10.28-2.49,12.49-3.49,14.63-6.63,14.78-27.37.23-34.1-1.63-.76-9.45-3.26-10.72-3.26h-159.39l34.94-45.36,3.48-1.51c39.44,1.83,80.8-2.27,120.01,0,35.35,2.05,74.82,19.73,78.39,59.33,4.42,49-34.57,71.59-78.44,74.19-33.78,2-69.45-1.48-103.42,0Z"></path><path d="M864.89,3.98l79.95,117.56,2.91-2.08L1029.77,3.98h65.45l-115.94,163.86c-17.34,22.61-47.7,25.18-66.91,2.99L797.44,3.98h67.45Z"></path><rect x="1115.21" y="3.98" width="55.96" height="179.32"></rect><path d="M363.74,226.14l-7.66,9.8c-8.62,1.15-31.8-4.36-27.1,11.41.52,1.74,4.8,4.69,6.28,4.69h15.49v-4.98h-16.99l6.5-7.97h22.48v21.92h-31.48c-1.85,0-8.43-4.34-9.93-6.04-8.07-9.1-4.84-21.95,6.04-26.73.94-.41,5.45-2.1,5.89-2.1h30.48Z"></path><path d="M808.43,226.14l-7.49,9.96h-26.48l.44,3.05,1.21.78c11.63,1.75,37.76-6.15,33.1,14.39-.55,2.44-5.34,6.69-7.28,6.69h-39.47l6.5-8.97h27.98c.31,0,1.84-2.03,2.48-2.49.01-4.17-24.45-1.92-28.4-2.55-8.79-1.4-10.47-13.37-3.52-18.34.67-.48,5.11-2.53,5.46-2.53h35.47Z"></path><polygon points="958.32 226.14 950.83 236.1 929.34 236.1 929.34 239.09 956.32 239.09 949.83 248.05 929.34 248.05 929.34 252.04 958.32 252.04 951.83 261 917.35 261 917.35 226.14 958.32 226.14"></polygon><polygon points="1224.13 226.14 1216.64 236.1 1195.15 236.1 1195.15 239.09 1222.14 239.09 1215.64 248.05 1195.15 248.05 1195.15 252.04 1224.13 252.04 1217.64 261 1183.16 261 1183.16 226.14 1224.13 226.14"></polygon><path d="M99.93,261h-14.49l-7.99-8.97h-15.49v8.97s-11.99,0-11.99,0v-17.93h33.48c4.16,0,3.19-6.97,1-6.97h-33.48c.44-2.99,4.86-9.43,7.51-9.94,4.19-.82,20.19-.48,24.95,0,16.24,1.62,20.66,16.36,6.53,24.4l9.97,10.46Z"></path><path d="M1162.18,261h-15.99l-6-8.97h-16.99v8.97s-10.99,0-10.99,0v-17.93h33.48c1.24,0,3.4-4.33,2.4-5.87-.82,0-2.04-1.1-2.4-1.1h-33.48c1.07-2.85,5.77-9.42,8.52-9.94,5.55-1.04,27.12-.41,32.14,1.78,10.8,4.72,9.13,17.73-.67,22.6l9.97,10.46Z"></path><polygon points="740.48 226.14 732.98 236.1 710.5 236.1 710.5 239.09 738.48 239.09 731.98 248.05 710.5 248.05 710.5 252.04 740.48 252.04 733.98 261 699.51 261 699.51 226.14 740.48 226.14"></polygon><polygon points="1108.22 226.14 1101.72 236.1 1079.24 236.1 1079.24 239.09 1106.22 239.09 1101.22 248.05 1079.24 248.05 1079.24 252.04 1109.22 252.04 1103.22 261 1068.24 261 1068.24 226.14 1108.22 226.14"></polygon><path d="M1364.04,226.14l-7.49,9.96h-21.48v2.99h26.98c.84,2.02-5.93,8.97-6.5,8.97h-20.49v3.98h28.98l-6.5,8.97h-33.48v-34.87h39.97Z"></path><path d="M158.89,261h-39.97l5.99-8.47,13.99-.5-8.49-12.93-15.48,21.41c-1.76.85-9.28.79-11.52.49-1.39-.18-1.73.55-1.47-1.48l22.55-31.32c2.99-2.52,6.93-3.76,10.33-1.48l24.07,34.28Z"></path><path d="M660.53,261h-40.97l6-8.97h14.99l-7.91-12.33-2.06-.62c-2.97,3.98-11.08,18.97-14.44,20.98s-9.5.42-13.56.92c7.15-9.24,14.13-23.1,22.02-31.34,4.52-4.72,7.7-5.75,13.4-1.46l22.55,32.81Z"></path><path d="M1027.27,253.03v7.97s-10.99,0-10.99,0v-17.93h32.48c.26,0,2.33-1.03,2.55-1.67l-1.55-5.3h-33.48c1.77-2.85,5.17-9.31,8.52-9.94,4.04-.76,19.49-.53,23.96-.03,10.93,1.23,19.49,12.12,11.51,21.44-2.24,2.61-10.31,5.46-13.51,5.46h-19.49Z"></path><path d="M1012.28,226.14l-17.94,16.54,17.94,18.32h-15.49l-10.99-10.94c-2.65,2.17-9.42,9.91-12.19,10.74-3.56,1.07-9.4-.34-13.29.19l17.97-17.42-17.97-17.43h15.49l10.99,10.94,10.99-10.94h14.49Z"></path><path d="M46.97,226.14l-7.68,9.78c-7.8,1.6-23.82-3.78-26.66,6.38-1.15,4.11,3.01,9.75,6.86,9.75h27.48c-1.27,2.32-5.22,8.54-7.49,8.97-3.6.69-18.94.45-22.9-.1-14.32-1.97-21.83-20.84-9.53-30.24,1.46-1.12,9.01-4.54,10.44-4.54h29.48Z"></path><path d="M1320.07,226.14c.78.66-6.23,9.33-7.7,9.76-7.07,2.06-31.25-4.89-25.83,11.23.57,1.7,4.81,4.92,6.05,4.92h27.48c-1.62,2.61-4.5,8.36-7.51,8.95-3.6.71-18.91.47-22.88-.07-13.92-1.91-21.12-19.78-9.93-29.65,1.69-1.49,8.94-5.13,10.84-5.13h29.48Z"></path><polygon points="202.86 226.14 195.36 236.1 174.88 236.1 174.88 240.08 200.86 240.08 193.36 249.05 174.88 249.05 174.88 261.01 162.88 261 162.88 226.14 202.86 226.14"></polygon><path d="M249.82,226.14c-5.1,9.02-8.03,11.45-18.99,9.96v24.9h-11.99v-24.9h-15.99l6-9.96h40.97Z"></path><path d="M696.51,226.14c-4.16,9.28-8.87,11.31-18.99,9.96v24.9h-10.99v-24.9h-16.99l7.49-9.96h39.47Z"></path><polygon points="518.63 226.14 510.98 235.94 498.65 236.1 498.65 261 487.66 261 487.66 236.1 471.67 236.1 477.66 226.14 518.63 226.14"></polygon><polygon points="450.68 226.14 450.68 252.04 477.66 252.04 471.17 261 439.69 261 439.69 226.14 450.68 226.14"></polygon><rect x="814.42" y="226.14" width="10.99" height="34.87"></rect><rect x="1166.18" y="226.14" width="10.99" height="34.87"></rect><rect x="252.82" y="226.14" width="10.99" height="34.87"></rect><rect x="521.63" y="226.14" width="10.99" height="34.87"></rect></g></g></g></svg> 