<?xml version="1.0" encoding="UTF-8"?> <svg xmlns="http://www.w3.org/2000/svg" id="Layer_2" data-name="Layer 2" viewBox="0 0 1943.23 266.04"><defs><style> .cls-1 { fill: currentColor; } .cls-2 { fill: #e32727; } </style></defs><g id="Layer_1-2" data-name="Layer 1"><g><path class="cls-2" d="M137.16,1.99c70.95,1.48,128.47,60.9,127.93,131.51h-30.98c1.13-75.53-81.14-125.54-148.59-89.83-69.36,36.71-73.29,134.66-6.24,175.93,18.65,11.48,38.96,15.91,60.89,15.52-.6,10.14,1.25,21.02-1,30.89h-8C66,267.74,3.47,214.26.23,147.45c.54-8.73-.74-18.27,0-26.9C6.05,52.43,63.49,6.36,129.17,1l8,1Z"></path><path class="cls-2" d="M199.13,199.25h-30.98v-70.24c0-9.32-11.39-23.15-19.66-27.22-30.14-14.84-61.65,15.16-48.79,45.64,6.84,16.21,23.75,22.53,40.47,21.93v29.89h-17.49c-11.43,0-32.92-13.84-40.45-22.44-44.87-51.27,8.75-128.77,72.92-105.56,21.37,7.73,43.99,34.45,43.99,57.77v70.24Z"></path><path class="cls-1" d="M1664.38,100.12c.5-2.72,3.12-3.23,5.48-3.49,4.74-.51,18.71-.83,22.02,1.98l42.46,66.76v-66.25c0-3.07,21.32-4.32,22.82.16l-.83,99.96h-25.99l-42.98-67.75v66.25c0,.11-1.39,1.49-1.5,1.49h-20.49c.32-.98-1-2.16-1-2.49v-96.64Z"></path><path class="cls-1" d="M1186.62,99.13c.44-1.46,3.95-2.33,5.48-2.51,13.57-1.58,42.98-1.07,57.03-.02,11.63.87,22.57,4.47,24.36,17.56.91,6.68.75,26.08-1.72,31.99s-7.35,8.83-13.18,10.75c2.71,4.91,23.75,38.93,22.55,41.35-1,1.99-3.15,1.88-5.01,2.06-8.2.78-18.9,1.76-23.74-5.34-7.3-10.71-13.01-25.27-19.8-36.56h-21.99v39.35c0,3.61-23.99,3.61-23.99,0v-98.63ZM1210.61,139.48h35.48c6.49,0,5.68-22.91,1-22.91h-36.48v22.91Z"></path><path class="cls-1" d="M460,165.88c1-3.29,19.39-3.26,21.99-2,4.29,2.08-1.46,13.83,8.55,15.39,4.51.7,26.58.76,30.71-.15,6.33-1.41,8.17-13.15,1.42-15.93-14.54-5.72-31.61-8.21-45.95-13.98-7.4-2.98-13.49-7.83-14.64-16.29-2.33-17.07,1.75-34.33,21.41-36.27,10.07-.99,37.1-1.26,46.73.23,3.59.55,10.21,3.61,12.77,6.2,1.47,1.48,5.96,9.49,5.96,11v16.94c0,3.19-19.48,3.22-21.99,2-4.29-2.08,1.46-13.83-8.55-15.39-4.15-.65-22.86-.69-26.71.16-6.11,1.35-7.67,10.66-2.46,13.98,14.78,6.72,34.28,8.55,48.7,15.22,14,6.47,14.64,19.61,12.75,33.6-1.63,12.09-10.34,18.71-22.19,19.72-11.1.95-39.27,1.35-49.77-.27-7.96-1.23-18.73-9.71-18.73-18.19,0-3.5-.72-13.56,0-15.94Z"></path><path class="cls-1" d="M1875.27,165.38h-25.49c-.11,0-1.5-1.39-1.5-1.49v-14.94c0-.11,1.39-1.49,1.5-1.49h48.48c1.19,8.69,1.73,19.61,1.04,28.43-1.14,14.39-7.56,23.13-22.49,24.41-12.13,1.04-41.13,1.38-52.75-.3-9.56-1.38-17.33-8.56-18.66-18.26-1.7-12.37-1.64-54.12,0-66.58,1.07-8.15,6.82-14.88,14.69-17.24s47.88-2.34,57.7-1.28c12.23,1.32,19.27,9.47,20.47,21.44.25,2.49.79,14.44-2.49,14.44h-18.99c-4.98,0,1.07-14.83-7.21-16.72-4.3-.98-29.91-.9-34.71-.15-4.08.64-6.12,3.46-6.58,7.39-1.25,10.71-1.25,40.14,0,50.85.54,4.61,2.9,6.94,7.5,7.47,4.88.56,31.99.7,35.56-.46,5.86-1.9,3.52-10.8,3.94-15.5Z"></path><path class="cls-1" d="M624.91,118.55v18.93h45.48c3.55,0,3.55,20.92,0,20.92h-45.48v19.93h59.47c4.07,0,6.39,21.24-1.21,21.7l-77.76.21c-5-.53-5.12-1.68-5.52-6.43,1.94-29.38-2.44-61.73,0-90.74.47-5.55.93-6.01,6.49-6.47,24.15-2.02,51.32,1.41,75.78.26,2.79.7,3.45,1.48,3.78,4.2s.75,17.49-2.56,17.49h-58.47Z"></path><path class="cls-1" d="M879.78,118.55v18.93h45.48c.11,0,1.5,1.39,1.5,1.49v17.93c0,.11-1.39,1.49-1.5,1.49h-45.48v19.93h59.47c3.28,0,3,15.7,2.5,18.43-.45,2.42-2.32,3.02-4.57,3.42-24.49-1.78-52.89,2.61-76.91.07-5-.53-5.12-1.68-5.52-6.43,1.94-29.38-2.44-61.73,0-90.74.47-5.55.93-6.01,6.49-6.47,24.15-2.02,51.32,1.41,75.78.26,2.79.7,3.45,1.48,3.78,4.2s.75,17.49-2.56,17.49h-58.47Z"></path><path class="cls-1" d="M1012.71,136.49h19.99c3.37-8.05,7.52-16,11.82-23.58,1.84-3.24,6.33-12.63,8.65-14.3,3.39-2.44,23.94-3.5,26.09,0,.59,2.22-1.42,4.72-2.41,6.66-2.82,5.54-23.14,38.19-22.94,40.51,2.16,6.89,29.33,48.98,28.68,51.87-.88,3.92-22.29,3.37-25.86,1.06-5.59-3.61-21.76-40.31-24.53-40.31h-19.49v38.36c0,5.28-24.99,4.41-24.99,1v-98.63c0-3.63,24.99-3.94,24.99,1v36.36Z"></path><path class="cls-1" d="M1521.95,134.49c-2.83-.87-.24-14.01-4.75-16.25-5.06-2.51-35.88-3.02-39.78.75-1.69,1.63-1.8,3.81-1.99,5.99-1.01,11.33-1.25,36.82.03,47.89.68,5.95,4.16,6.9,9.53,7.44,5.71.56,28.89.77,32.79-1.91,3.41-2.34,2.49-15.8,2.79-19.89,3.05-1.43,22.88-2.29,22.88,1.39v22.91c0,.6-3.46,7.76-4.17,8.8-2.98,4.34-8.63,7.31-13.77,8.19-10.47,1.8-41.45,1.53-52.52.44-9.62-.95-17.44-6.4-20.04-15.89-2.73-9.97-2.73-61.85,0-71.82,2.59-9.46,10.4-14.93,20.04-15.89,11.77-1.16,39.26-1.28,50.85.1,6.9.82,13.75,4.71,17.01,10.94.45.86,2.6,6.04,2.6,6.38v18.93c0,.11-1.39,1.49-1.5,1.49-4.15,0-17.25.84-19.99,0Z"></path><path class="cls-1" d="M1394.02,199.25c-3.52-1.02-6.79-19.62-10.16-20.76l-40.21-.04c-2.33,7.04-4.32,14.68-8.61,20.8h-21.49l-.09-4.47,36.63-95.1c.63-1.32,1.59-1.76,2.96-2.03,2.66-.51,21.58-.34,23.45.49,1.14.51,2.18,2.09,2.78,3.21l36.27,95.4c.09.83-1.05,2.5-1.56,2.5-4.34,0-16.96.87-19.99,0ZM1352.54,157.41h23.99c-2.1-3.7-9.92-30.41-11.5-30.89-1.9-.58-1.48.93-1.95,1.99-4.08,9.13-7.07,19.48-10.53,28.9Z"></path><path class="cls-1" d="M398.53,199.25c-3.64-1.04-7.25-19.81-10.13-20.79-5.11.39-39.29-1.2-40.46.46-2.31,6.83-4.51,14.31-8.38,20.33h-21.49c-1.15-2.85.15-4.8.99-7.49,9.4-30.04,24.85-59.96,34.49-90.15.54-1.18,1.3-2.91,2.5-3.48,1.65-.79,20.92-.96,23.47-.47,1.72.33,2.59,1.12,3.37,2.62l37.12,96.56c.21.83-1.05,2.42-1.48,2.42-4.37,0-16.91.88-19.99,0ZM381.04,157.41l-12.49-31.89-11.49,31.89h23.99Z"></path><path class="cls-1" d="M781.83,118.55v78.21c0,3.32-5.2,3.37-7.46,3.53-3.36.23-17.53,1.19-17.53-3.53v-78.21h-30.48c-3.28,0-3-15.7-2.5-18.43.55-3.02,3.79-3.49,6.45-3.53l80.79.26c7.6.47,5.29,21.7,1.21,21.7h-30.48Z"></path><path class="cls-1" d="M1590.42,99.13c1.03-3.41,27.95-5.88,25.03,4.94l-.26,91.49c-.32,7.61-24.77,5.12-24.77,2.21v-98.63Z"></path><path class="cls-1" d="M1932.03,96.85c.74.41,2.12,5.04,2.7,4.76,2.93-3.62,1.57-6.11,7.5-4.98,1.75,7.4-2.8,21.74-4.01,5.99-1.92.01-.77,2.99-3.49,2.99s-1.57-2.98-3.49-2.99c-1.25,15.86-5.75,1.21-4.01-5.99,1.46.16,3.57-.46,4.79.22Z"></path><path class="cls-1" d="M1921.39,99.76c-.92,1.01,1.47,10.68-2.63,9.82-2.75-.58-.95-9.44-1.51-9.96-.85-.8-5.31,1.97-4.01-2.98,1.33-.09,13.8-.64,11.52,2-.97,1.12-2.94.66-3.37,1.13Z"></path><path class="cls-3" d="M137.16,1.99c-2.52-.05-6.32.8-8-1,2.31-.19,6.49-.62,8,1Z"></path></g></g></svg> 