<?xml version="1.0" encoding="UTF-8"?> <svg xmlns="http://www.w3.org/2000/svg" id="Layer_2" data-name="Layer 2" viewBox="0 0 383.35 32.33"><g id="Layer_1-2" data-name="Layer 1"><g><path d="M198.83,32.33l-1-32.03h17.45l13.45,17.47L240.23.3h17.45l-1,32.03h-4.99c-7.3-6.1-3.6-21.43-2.99-30.08l-19.54,27.24-21.35-26.28v25.72l-4.99,3.4h-3.99Z"></path><path d="M125.03,32.33V.3h17.45l11.49,17.47L167.42.3h16.46l-1,32.03h-3.99c-8.06-5.9-2.26-21.06-4-30.08l-20.44,27.24-18.47-27.24-.98,2.42v23.29l-5.98,4.37h-3.99Z"></path><path d="M383.35.3v.97l-5.52,4.82-29.39.04.6,3.99,31.29,8.18c3.46,4.4,3.31,11.39-1.96,14.03h-42.89l4.49-6.79h32.42l-.59-3.99-30.87-7.61-2.38-4.47.43-7.22,3.95-1.98,40.44.04Z"></path><polygon points="284.61 32.33 273.64 25.05 273.64 .3 282.62 .3 282.62 23.11 285.11 25.54 313.53 25.54 306.55 32.33 284.61 32.33"></polygon><path d="M106.08,32.33L85.11,2.25l-10.93,11.63c-4.21-6.33-4.28-12.26,4.4-13.64,3.08-.49,13.61-.3,16.24,1.32l19.24,30.77h-7.98Z"></path><path d="M13.32,32.33C.76,28.69-1.17,22.4.53,10.18l9.79-3.08v16.01l3.49,2.43h33.41l-5.98,6.79H13.32Z"></path><polygon points="54.21 32.33 64.9 17.99 84.41 17.98 89.12 22.63 70.67 22.63 61.19 32.33 54.21 32.33"></polygon><polygon points="314.53 .3 324.51 .31 323.36 24.42 314.53 25.54 314.53 .3"></polygon><polygon points="50.22 .3 44.73 6.13 10.32 6.13 11.82 .3 50.22 .3"></polygon></g></g></svg> 