<?xml version="1.0" encoding="UTF-8"?> <svg xmlns="http://www.w3.org/2000/svg" id="Layer_2" data-name="Layer 2" viewBox="0 0 1088 230"><g id="Layer_1-2" data-name="Layer 1"><g><path fill="currentColor" d="M1088,115.5l-46.05-.43c-4.07-1.14-7.28-14.47-13.35-14.56h-138.97c-6.86.73-7.95,13.38-14.15,14.77-6.98-.72-41.33,2.02-44.83-.69-.8-.62-1.38-1.63-1.46-2.64L897.08,1.64l123.78-.43,67.14,106.33v7.97ZM907.17,70.69h103.4l1.42-2.38-24.91-37.93h-55.92c-1.05.63-1.71,1.61-2.44,2.54-4.2,5.28-18.39,27.33-20.77,33.07-.66,1.6-1,2.96-.78,4.7Z"></path><polygon fill="currentColor" points="1088 142.38 1088 149.35 1.57 149.37 .98 142.95 1088 142.38"></polygon><path fill="currentColor" d="M1088,171.26v9.96c-17.48-.02-35,0-52.49.05-3.09,0-8.72-2.46-10.26,2.63-.83,2.74-.74,27.87-.24,31.72.22,1.7.37,3.02,2.04,3.94l48.43.46c5.16-.96,3.26-7.1,3.53-10.92h-19.98l.14-8.32,1.5-1.49,27.34-.14v30.87h-63.94c-4.75-1.98-8.37-5.03-9.02-10.43-.87-7.18-1.01-31.94.08-38.8.54-3.41,4.82-7.84,8.1-8.86,21.5-.46,43.29-2.8,64.78-.66Z"></path><path fill="currentColor" d="M72.93,230h-10.99c-.49-3.39,1.63-20.91-2.5-20.91H10.99v20.91H1l-.04-49.33c1.81-13.25,23.91-9.24,33.55-9.37,8.1-.11,15.17-1.69,23.85.04,12.58,2.52,19.88,14.08,14.46,26.19-.75,1.67-3.7,4.76-3.71,5.08,0,.64,3.33,3.7,3.77,6.03,1.14,6.12-.73,14.9.05,21.36ZM10.99,199.13h47.46c5.21,0,10.12-14.58.55-17.48l-43.4-1.16c-1.17.04-4.61,2.63-4.61,3.21v15.43Z"></path><path fill="currentColor" d="M812.25,230l-.05-56.3c-.28-4.83,5.71-3.81,9.02-2.92l54.97,45.28v-45.8l8.35.14,1.5,1.49.14,58.11h-9.99l-53.94-45.8v45.8h-10Z"></path><path fill="currentColor" d="M414.62,230c-3.95-2.86-7.36-5.01-8.02-10.43-.84-6.93-1.02-32.26.08-38.81.78-4.66,5.56-9.32,10.41-9.53l62.53-.54c1.53,1.06,1.72,9.14-.56,10.52h-54.95c-2.77,0-6.54-1.19-7.47,3.51s-.64,24.82-.04,29.87c.26,2.24.74,3.94,2.52,5.46h61.44v9.96h-65.94Z"></path><path fill="currentColor" d="M277.74,230h-9.99l-6.63-15.8-42.43.48-5.89,15.32h-9.99l21.34-49.93c7.29-12,26.08-11.79,33.05.21l20.55,49.72ZM248.43,183.54c-6.62-6.65-14.59-3-18.52,4.26-1.16,2.14-6.96,16.31-6.11,17.3l32.97-.48c1.59-1.17.55-1.13.17-2.16-1.5-4.01-6.15-16.56-8.51-18.92Z"></path><polygon fill="currentColor" points="651.4 230 641.41 230 642.35 170.7 650.47 170.7 651.4 230"></polygon><path fill="currentColor" d="M805.26,1v27.38l-140.88,51.77-3.5,2.5,1.01,1.99h139.87c.48,0,2.36,1.48,3,1.99.83,1.36.86,20.41.56,23.45-.28,2.8-.19,4.75-3.58,5.39l-245.79.08-5.45-1.04v-26.39l3.45-2.54,142.42-53.23-1.5-2.48h-142.87l-1.5-1.49V1h254.77Z"></path><path fill="currentColor" d="M318.45,1.24l169.14.21,42.18,26.66.29,58.57-2.21,2.78-43.86,25.98-163.55-.19c-2.52-.63-38.55-22.6-41.63-25.23s-3.74-3.63-4.13-7.84c-1.54-16.69.81-36.34.57-53.29,13.15-10.77,28.94-18.33,43.18-27.66ZM337.43,30.11c-5.7,1.65-11.14,5.48-15.2,9.74-.49.74-.46,1.58-.57,2.42-.52,3.93-.59,29.83.26,32.7.96,3.24,10.46,7.48,13.49,9.46l132.69.23c3.1-.38,13.41-5.8,14.26-8.69v-36.43c-.74-2.51-11.04-8.61-13.71-9.24l-131.21-.19Z"></path><path fill="currentColor" d="M1,1h44.46c23.5,15.3,46.57,31.63,70.52,46.21,2.88,1.76,9.66,6.67,12.42,6.63L211.31,1h42.96l1.5,1.49v110.52c0,.17-1.54,1.76-2.01,1.98-1.9.89-33.59,1.06-37.5.56-1.7-.22-3.03-.37-3.96-2.03l-.45-64.27c.21-3.85-3.03-4.19-6-2.9l-61.96,38.82c-8.99.2-19.71,1.34-28.55.52-8.6-.8-47.35-28.99-58.48-35.31-2.67-1.52-8.34-6.03-10.97-4.14l-1.45,67.27c-.22.47-1.81,2.01-1.98,2.01H2.5l-1.5-1.49V1Z"></path></g></g></svg> 