<?xml version="1.0" encoding="UTF-8"?> <svg xmlns="http://www.w3.org/2000/svg" id="Layer_2" data-name="Layer 2" viewBox="0 0 235.32 101.01"><g id="Layer_1-2" data-name="Layer 1"><g><path d="M.3,32.67c-.42-.42-.77-10.54,1.64-11.74s49.86-.79,53.41.07c1.96.48,32.05,21.64,32.58,23.58.13.46-6,6.91-6.47,6.91H17.23c-.73,0,1.26,12.74-.93,14.42-1.08.83-16,1.13-16-1.05v-24.26h56.76c-.62-1.77-8.72-7.92-9.46-7.92-6.21,0-45.62,1.66-47.3,0Z"></path><path d="M97.4,20.79c3.2.77,12.56,11.56,15.84,10.97,2.09-.37,25.29-29.2,29.15-30.69,5.02-1.95,18.78,1.63,25.22-1.06-3.44,6.41-41.04,40.12-40.81,43.07.13,1.62,25.12,17.57,25.77,19.91,1.28,4.59-9.6,3.85-12.42,3.43-3.47-.52-54.1-37.17-56.72-40.64-1.34-1.78-1.85-2.61-1.47-4.98,4.38.69,11.49-.95,15.44,0Z"></path><path d="M47.11,101.01c6.97-5.57,49.31-55.78,53.13-55.38.9.09,14.02,10.8,13.57,11.78-6.92,3.45-40.22,43.61-43.3,43.61h-23.4Z"></path><path d="M235.32,20.79v45.56c-5.75,4.22-33.22-19.52-33.69-21.52-.33-1.4-.02-4.23,1.32-4.23h17.43v-19.81h14.94Z"></path><path d="M195.48,45.55h-18.92v19.81c-1.77-1.46-14.94-9.01-14.94-9.9V20.79c11.29-.8,29.7,14.89,33.86,24.76Z"></path></g></g></svg> 