<?xml version="1.0" encoding="UTF-8"?> <svg xmlns="http://www.w3.org/2000/svg" id="Layer_2" data-name="Layer 2" viewBox="0 0 426.15 71"><g id="Layer_1-2" data-name="Layer 1"><g id="xnPMoX.tif"><g><path d="M.15,31.56c.12-1.25,1.63-8.66,3.46-7.87,1.42.61,4.97,4.08,7.5,5.42,7.05,3.74,24.54,7.95,28.18,13.56,10.2,15.78-24.37,18.6-33.8,9.26-2.46-2.44-4.97-10.11-5.33-13.47-.21-1.91-.19-4.98,0-6.9Z"></path><path d="M141.67,28.46c-.65.4-13.61.43-15.37.19-2.33-.32-3.55-1.75-5.88-2.08-3.26-.45-13.76-.43-17.06,0-2.17.28-3.16.73-4.43,2.53-.74,1.9,4.47,2.22,5.6,2.33,6.31.61,26.77-.61,30.86,3.02,5.3,4.69-2.33,14.12-8.48,15.4-7.39,1.53-37.38,1.38-45.47.46-6.21-.71-7.51-5.36-3.83-9.74,4.33.14,9.7-.71,13.88-.18,3.07.39,4.2,2.5,6.99,2.95,3.24.52,21.31.7,21.38-3.4-1.2-1.81-2.64-1.38-4.42-1.52-7-.56-28.04-.17-32.45-3.42-5.89-4.34,1.74-12.61,7.17-14.58,6.91-2.5,38.07-2.69,46.09-1.59,6.25.86,8.16,3.9,5.43,9.63Z"></path><path d="M220.63,50.29l6.98-16.75c-1.87-.43-2.38,1.03-3.5,1.96-3.68,3.07-13.1,12.75-16.48,14.28-1.81.82-17.59.97-18.98.06-1.39-4.25-5.22-11.4-4.91-15.7.1-1.4,4.31-12.47,5.14-13.74,6.78-10.42,11.79,18.14,13.3,18.08l23.93-19.74h24.44l-11.97,31.56h-17.96Z"></path><path d="M49.04,66.06l7.51-5.88c14.73-17.88,1.49-29.59-15.51-36.99-6.57-2.86-28.5-6.86-21.01-18.59,4.08-6.39,25.63-3.43,32.04-.21,24.95,12.54,23.91,52.65-3.03,61.66Z"></path><path d="M386.24,26.62c.61-2.69,1.38-7.33,4.49-7.89,4.62-.84,21.79-.52,26.93,0,10.89,1.12,8.67,11.58.5,13.82l.02,1.94c5.46.38,1.36,10.1-1.07,12.29-.48.43-6.07,3.5-6.43,3.5h-34.42l2.1-6.79c4.72-.88,22.55,1.71,24.82-2.59.71-1.34-2.06-2.45-2.49-2.45h-19.45l3.49-7.89h19.95l1.49-1.49-1.49-2.45h-18.46Z"></path><path d="M335.86,50.29l-4.99-10.83c-.97.01-8.48,9.41-10.49,10.32-3.31,1.49-9.23,0-12.95.5l18.88-20.34-17.38-17.13,35.13,14.08,8.25,23.4h-16.46Z"></path><polygon points="289.47 18.74 276 50.29 259.54 50.29 271.51 18.74 289.47 18.74"></polygon><polygon points="387.24 18.74 373.77 50.29 357.31 50.29 369.28 18.74 387.24 18.74"></polygon><path d="M187.71,18.74c-4.65,10.39-7.88,21.71-13.47,31.56h-16.46l11.97-31.56h17.96Z"></path><polygon points="166.76 18.75 154.29 49.31 139.82 50.28 152.29 19.72 166.76 18.75"></polygon><polygon points="312.42 40.43 303.94 50.29 278.5 50.29 281.49 40.43 312.42 40.43"></polygon><path d="M150.8,18.75c-4.4,8.91-7.02,19.86-11.49,28.57-.58,1.14-.92,2.73-2.47,2.98,3.85-9.69,6.88-20.22,11.52-29.57.7-1.41-.23-2.48,2.44-1.97Z"></path><path d="M343.33,24.65l-13.95-5.91,11.34.12c1.32.34,3.13,5.16,2.62,5.79Z"></path></g></g></g></svg> 