<?xml version="1.0" encoding="UTF-8"?> <svg xmlns="http://www.w3.org/2000/svg" id="Layer_2" data-name="Layer 2" viewBox="0 0 1870 254"><defs><style> .cls-1 { fill: #231f20; } </style></defs><g id="Layer_1-2" data-name="Layer 1"><g><path class="cls-1" d="M460.75,0l3.5,3.98c6.09,3.58,10.24,13.6,13.49,20.42,15.53,32.6,30.5,66.1,45.98,98.61.94,1.97,1.93,5.31,3,6.97,2.02,3.14,4.58,2.57,8,2.49-.5-1.64.68-1.8,1-2.49,17.3-37.11,34.61-74.59,51.97-111.56,2.32-4.94,5.87-12.23,10.49-14.44l4.5-3.98h49.97l5,7.47v198.22c-1.53.79-.68,2.2-1,2.99-.84,2.09-2.66,3.27-4,4.98-10.35,13.22-24.85,24.67-36.48,37.35l-4,1.99c-.85-1.51-2.06-.72-3-1-1.28-.38-1.39-2.78-2.5-3.49V119.03l-3.5-3.49h-2l-3.5,2.49c-2.25,6.05-5.14,11.88-8,17.93-9.96,21.1-19.92,42.39-29.98,63.75-7.48,15.87-14.65,31.87-22.99,47.81-.54,1.03-1.16,4.1-2.5,4.48-.98.28-2.18-.5-3,1l-4.5-1.99c-.17-.17.23-.96,0-1.49-1.19-2.83-3.67-6.11-5-8.96-17.49-37.54-34.28-75.31-51.97-112.56-1.57-3.3-4.06-6.52-5-9.96-1.05-1.19-3.86-2.97-5.5-2.49-.74.22-2.5,2.86-3.5,3.49v86.66l-2,4.98-43.48,42.33-5.5-3.49V7.47l5-7.47h50.97Z"></path><path class="cls-1" d="M1419.24,0l2.5,2.99c7.05,3.38,9.66,11.21,13.49,17.43,23.38,37.93,46.53,76.03,68.96,114.55,1.65.96,2.93,5.05,4.5,5.48,2.71.74,4.92-.33,6.5-2.49V48.31c1.52-.8.69-2.15,1-2.99.76-2.04,2.76-4.22,4-5.98,8.74-12.41,23.73-23.8,34.48-35.36,1.13-1.21,2.83-2.03,2.5-3.98h8l2,5.48v237.07l-1,3.98-5.5,4.48-3.5,2.99h-30.98l-5.5-2.99c-6.1-.76-11.29-8.33-14.49-13.45-23.1-36.98-44.47-75.19-66.96-112.56l-71.96-119.53,2-5.48h49.97Z"></path><path class="cls-1" d="M1722.08,0l2.5,2.99c6.62,2.25,8.94,9.68,12.49,15.44,23.91,38.69,47.1,77.82,70.96,116.54.29.46.72,2.55,1,2.99,2.31,3.6,6.63,3.45,9,0V49.31l3-7.97c12.12-12.77,25.49-24.47,37.48-37.35,1.13-1.21,2.83-2.03,2.5-3.98h9v247.03h-1.5c-2.79,2.5-4.3,5.9-8.5,4.98v1.99h-30.98l-5.5-2.99c-6.1-.76-11.29-8.33-14.49-13.45-34.38-55.04-66.51-111.7-99.95-167.34-11.96-19.91-24.93-39.29-35.98-59.76-.37-.68-1.86-1.48-2-1.99-.79-2.85,1.02-5.7,1-8.47h49.97Z"></path><path class="cls-1" d="M251.87,0c-.34,2.21,1.7,2.32,2,4.48.13.95-.09,2.01,0,2.99l-41.48,41.34-5,1.99H61.47l-4,1-5.5,6.47v34.86l2,3.98,4.5,3.49h133.93c.71,1.1,3.12,1.21,3.5,2.49.28.93-.51,2.14,1,2.99l-1,2.99-41.48,40.34-2,1-8,1.99H11.49l-6-1.99-5.5-4.98V53.79l3-3.49c-.3-1.75,2.3-2.23,2-3.98L51.97,0h199.89Z"></path><path class="cls-1" d="M959.49,0c-.14,2.93,2.54,6.14,0,8.47l-40.48,40.34-5,1.99h-145.92c-.79,1.52-2.21.68-3,1-.39.16-.59.81-1,1-.31.14-.78-.13-1,0-.46.28-3.43,3.25-3.5,3.49-.28.98.5,2.17-1,2.99v32.87l2,4.98,5.5,3.49h132.93l4.5,4.48v1.99l-40.48,41.34c-1.9-.01-4.81,2.73-6,2.99-1.98.44-4.67-.91-6,1h-132.93c-.92-1.69-2.65-.63-4-1-.37-.1-.57-.8-1-1-.31-.14-.78.13-1,0-2.03-1.2-2.69-3.45-3.5-5.48-.17-.42-.92-.63-1-1V55.28l2-5.98,44.48-44.33,5.5-4.98h199.89Z"></path><path class="cls-1" d="M1258.33,0l4,4.48,2,5.98v183.28c-1.78,1.11-.64,3.26-1,4.98-.08.38-.88.59-1,1-.33,1.15-.33,2.72-1,3.98l-46.48,46.32-4,1-5.5,2.99h-131.93l-5-4.48v-4.98l39.48-39.35c1.62.05,3.41-2.56,5-2.99,1.35-.37,3.07.69,4-1h88.95c1.6-1.19,4.33-2.53,5.5-4.48.13-.21-.14-.69,0-1,.2-.44,1-.7,1-1V8.47c0-.17,1.72-1.5,1-2.99l4-3.98V0h40.98Z"></path><path class="cls-1" d="M1204.36,0l2,6.47-40.48,41.34-6,2.99h-88.95l-3,1c-1.36,1.18-3.42,1.69-4.5,3.49-.13.22.14.69,0,1-.19.41-.84.61-1,1-.32.79.53,2.2-1,2.99v185.27l-5.5,5.48-4.5,2.99h-30.98l-4.5-2.99c-3.24-.37-3.68-4.34-5.5-6.47V55.28c1.37-1.82,1.8-4.88,3-6.97.57-1,2.42-1.55,2-2.99,14.95-13.75,28.57-30.9,44.48-42.33l2.5-2.99h141.92Z"></path><path class="cls-1" d="M0,244.04c1.96.33,2.78-1.37,4-2.49,11.91-11.01,24.89-27.62,37.48-36.36,1.03-.71,2.73-2.64,4-2.99,1.35-.37,3.07.69,4-1h146.92l4.5-3.49,2-3.98v-85.66l7.5-7.47h35.98l7.5,7.47v89.65l-3,6.97-45.48,45.32-4,1-5.5,2.99H6v-1.99c-2.21.39-3.16-.35-4.5-1.99H0v-5.98Z"></path><path class="cls-1" d="M712.62,254c.68-3.43-2.35-.89-4-3.49-.13-.2.15-.68,0-1-.2-.43-.92-.64-1-1-.31-1.36-.19-3.22,1-3.98l41.48-41.34,6-1.99h146.92l6.5-6.47v-85.66l1-2.99,4.5-4.48,3-1h34.98l4,1.99,3.5,4.48v91.64l-2,4.98-46.48,46.32-4,1-5.5,2.99h-189.9Z"></path><path class="cls-1" d="M1662.11,0l4,4.48,2,4.98v193.24c-1.69.92-.63,2.64-1,3.98-.4,1.46-3.04,4.13-3,5.98l-39.48,39.35-3,1-5.5-4.48V8.47c1.5-.82.72-2.01,1-2.99.37-1.28,4.6-3.01,4-5.48h40.98Z"></path><path class="cls-1" d="M1359.27,0l4,4.48,2,5.98v191.25c-1.79,1.11-.63,3.27-1,4.98-.05.22-1.75,3.55-2,3.98-.57,1-2.42,1.55-2,2.99l-38.48,38.35-3,1-4.5-1.99-1-2.49V8.47c1.5-.82.72-2.01,1-2.99.37-1.28,4.6-3.01,4-5.48h40.98Z"></path><path class="cls-1" d="M352.81,0l2,4.48v201.21l-2,4.98-43.48,42.33-5.5-3.49V47.31l2-4.98c11.08-13.42,25.29-25.37,37.48-38.35,1.13-1.21,2.83-2.04,2.5-3.98h7Z"></path></g></g></svg> 