<?xml version="1.0" encoding="UTF-8"?> <svg xmlns="http://www.w3.org/2000/svg" id="Layer_2" data-name="Layer 2" viewBox="0 0 2987 644.03"><defs><style> .cls-1 { fill: #f05934; } .cls-2 { fill: #231f20; } </style></defs><g id="Layer_1-2" data-name="Layer 1"><g><path class="cls-1" d="M265.91,0l69.98,46.43v89.36l-72.3-43.73-182.61,119.12c-1.03.75-.93,1.82-1.07,2.93-.73,6-.79,25.16.01,31.06.19,1.4.19,2.6,1.51,3.48l252.39,162.27,1.59,2.44-71.83,46.76-187.61-120.65,1.48,89.87,114.41,75.43,1.05,2.42-72.41,40.96L0,475.26v-90.86l73.98-46.42L0,290.55v-121.81l52.49-31.6,68.47,45.58v-92.36L261.91,0h4Z"></path><path class="cls-2" d="M2987,349.46c-3.17,3.44-1.51,8.38-2.01,12.47-7.05,57.82-55.29,104.43-113.41,109.38l-228.46-.04v-51.92h224.42c2.67,0,9.99-2.11,13.01-2.98,28.03-8.03,51.08-35.54,52.47-64.91h-193.43c-53.68-3.01-101.53-42.58-114.18-94.65-6.59-27.16-1.84-57.23-3.29-85.07h51.98v61.4c0,33.09,42.22,69.62,75.43,66.44l183.48-.04v-127.8l53.98,1v176.73Z"></path><path class="cls-2" d="M1728.42,471.27h-51.98v-179.22c0-16.65-14.03-39.83-26.52-50.39-6.78-5.73-26.37-17-34.96-17h-153.45v246.62h-52.98v-246.62h-187.94v246.62h-52.98V171.73l440.39-.04c63.41,2.64,115.81,53.05,120.46,116.32l-.04,183.26Z"></path><path class="cls-2" d="M1001.66,171.73v52.92h-283.41c-1.81,0-11.46,5.1-13.43,6.56-27.4,20.25-12.49,62.09,20.38,64.38,68.95,4.8,143.43-3.7,212.96-.03,76.31,7.53,106.64,104.02,48.97,154.72-9.52,8.37-33.38,20.99-45.96,20.99h-288.4v-51.92h281.41c.97,0,7.35-2.49,8.85-3.14,34.3-14.92,25.65-66.05-13.8-68.79-68.63-4.78-142.81,3.64-212.01.08-108.98-14.17-103.65-168.61,5.99-175.81l278.45.05Z"></path><polygon class="cls-1" points="528.61 169.94 528.61 255.4 454.85 303.54 527.84 351.16 529.66 474.6 480.42 506.23 410.88 459.79 452.64 430.13 452.69 395.55 195.91 232.17 194.94 229.66 267.16 183.86 453.84 302.53 452.34 211.68 341.93 140.24 340.89 137.8 410.37 94.21 528.61 169.94"></polygon><path class="cls-2" d="M2577.14,171.73v52.92h-255.41c-2.17,0-12.07,3.22-14.76,4.23-26.39,9.95-48.65,38.69-46.72,67.66h298.9v52.92h-299.9v121.81h-51.98l-.04-181.26c3.73-63.97,55.54-114.92,119.51-118.27h250.41Z"></path><path class="cls-2" d="M1825.39,171.73v183.22c0,27.31,37.11,64.4,64.48,64.4h202.43v-247.62h51.98v299.54h-258.4c-57.94-5.48-105.3-51.83-112.35-109.46-2.48-63.25-.49-126.75-1.13-190.08h52.98Z"></path><polygon class="cls-1" points="409.86 459.29 409.86 550.65 264.34 644.03 194.93 601.07 194.93 506.22 264.34 549.18 409.86 459.29"></polygon><rect class="cls-2" x="1061.64" y="171.73" width="51.98" height="299.54"></rect></g></g></svg> 